<?xml version="1.0" encoding="utf-8"?>
<!-- Generator: Adobe Illustrator 24.0.2, SVG Export Plug-In . SVG Version: 6.00 Build 0)  -->
<svg version="1.1" id="Layer_1" xmlns="http://www.w3.org/2000/svg" xmlns:xlink="http://www.w3.org/1999/xlink" x="0px" y="0px"
	 viewBox="0 0 512 512" enable-background="new 0 0 512 512" xml:space="preserve">
<g>
	<g>
		<g>
			<path fill="#77D0DE" d="M370.2,485.2h-184c0,0,30.5-134.3,31.7-157.6c0.2-4.6,0.2-9,0-13c-0.3-5-1-9.4-2.2-13
				c-6.6-20.9-37.9-90-31.3-133.7c6.6-43.6,49.4-112.8,147.3-112.8c78,0,115.3,46.4,122.9,57.8c13.3,20.2,23.7,63,23.7,80.3
				c0,17.3-1.9,41.3,10.4,59.2c12.3,17.9,21.6,32,19.3,38.4c-2.2,6.2-12,10.7-21.2,11.7c-0.2,0.5-0.3,1.1-0.3,1.7
				c-0.3,2-0.3,4.1-0.1,6.3c0.2,4,1,8.2,1.5,11.5c0.4,3,0.7,5.3,0.2,6.4c-1.4,3.2-9.5,6-14.4,7.2c9,0.7,12.9,3.9,10.4,9.3
				c-0.7,1.5-2,2.8-3.5,4c-5.2,4.2-13.6,7-14.1,13c-0.3,3.6,1.7,9.7,3.1,16c1.6,7.2,2.5,14.7-1.7,19.5c-7.8,9-28.2,15.2-49.5,10.2
				c-19.9-4.6-27.3-7.2-32-9.7c-0.4-0.2-0.7-0.3-0.9-0.5c-4,8.8-7,21.4-8.1,27.7C369.9,469.8,370.2,485.2,370.2,485.2z"/>
		</g>
	</g>
</g>
<g>
	<g>
		<g>
			<path fill="#FCD751" d="M451.1,200.5c0,64.5-52.3,116.7-116.7,116.7c-64.5,0-116.7-52.3-116.7-116.7
				c0-64.5,52.3-116.7,116.7-116.7C398.8,83.8,451.1,136,451.1,200.5z"/>
		</g>
	</g>
</g>
<g>
	<g>
		<g>
			<g>
				<g>
					<path fill="#1C4670" d="M334.5,114.4c-47.6,0-86.3,38.6-86.3,86.1c0,47.4,38.7,86.2,86.3,86.2c47.4,0,86.1-38.7,86.1-86.2
						C420.5,153,381.9,114.4,334.5,114.4z M334.5,275.8c-41.6,0-75.4-33.8-75.4-75.3s33.8-75.3,75.4-75.3
						c41.5,0,75.3,33.8,75.3,75.3S376,275.8,334.5,275.8z"/>
				</g>
			</g>
		</g>
	</g>
	<g>
		<g>
			<g>
				<g>
					<polygon fill="#1C4670" points="307.4,158.3 383.4,202.2 307.4,246.1 					"/>
				</g>
			</g>
		</g>
	</g>
</g>
<g>
	<g>
		<g>
			<path fill="#DFDFDF" d="M328.8,181.5h-94.1h-11.5h0c0,0,0,0,0,0c0,0,0,0,0,0c1.9,0.5-8.9-6.2-8.9-6.2l-0.2,0c0,0,0,0,0,0
				c-14.9-9.4-33.2-16.8-52.9-16.9c-32.5-0.2-68.6,34.6-106.7,39.2c-2,0.3-4.1,0.4-6.1,0.5c-2.5,0.1-5.1,0-7.6-0.2l-25.5-1.4v111.2
				l25.8-1.3c2.5,0,5,0,7.3,0.1c2.1,0.1,4.1,0.1,6.1,0.3c48.3,3.3,66.5,24,81.4,27.7c22,5.3,33.9,4.3,33.9,4.3v0h44.3
				c8.7,0,15.7-7,15.7-15.7V315c0-5.8-3.1-10.8-7.8-13.5c0.1,0,0.1,0,0.2,0c-0.6-0.7-0.7-1.3,0.5-2.2c-0.1,0-0.2,0-0.4,0h7.5
				c8.7,0,15.7-7,15.7-15.7v-7.8c0-5.2-2.5-9.7-6.4-12.6c0.1,0,0.1,0.1,0.2,0.1c-1.1-0.8-2.1-2.5-0.9-3.2h2.2
				c8.7,0,15.7-7,15.7-15.7v-7.9c0-6.6-4.1-12.3-9.9-14.6l0.1,0c0,0-0.7-0.3,1-1.1l82.9-0.1c8.7,0,14.1-7,14.1-15.6v-7.9
				C344.5,188.5,337.5,181.5,328.8,181.5z M241,220.8c-0.1,0-0.3,0-0.4,0h2.4L241,220.8z"/>
		</g>
	</g>
</g>
</svg>
